<?xml version="1.0" encoding="utf-8"?>
<!-- Generator: Adobe Illustrator 25.0.0, SVG Export Plug-In . SVG Version: 6.00 Build 0)  -->
<svg version="1.1" id="Capa_1" xmlns="http://www.w3.org/2000/svg" xmlns:xlink="http://www.w3.org/1999/xlink" x="0px" y="0px"
	 viewBox="0 0 512 512" style="enable-background:new 0 0 512 512;" xml:space="preserve">
<style type="text/css">
	.st0{fill:#87317E;}
	.st1{fill:#401C61;}
	.st2{fill:#FAF7F7;}
	.st3{fill:#EDE1DD;}
	.st4{fill:#CE9FFC;}
	.st5{fill:#8C0036;}
	.st6{fill:#41295A;}
</style>
<g>
	<circle class="st0" cx="256" cy="256" r="209.5"/>
	<path class="st1" d="M465.5,256c0,115.7-93.8,209.5-209.5,209.5c-22.2,0-43.7-3.5-63.8-9.9c13.1,2.6,26.6,3.9,40.5,3.9
		c115.7,0,209.5-93.8,209.5-209.5c0-93.5-61.2-172.7-145.7-199.6C392.8,69.3,465.5,154.1,465.5,256L465.5,256z"/>
	<circle class="st2" cx="256" cy="256" r="173.5"/>
	<path class="st3" d="M429.5,256c0,95.8-77.7,173.5-173.5,173.5c-26.6,0-51.8-6-74.3-16.7c17.4,5.8,35.9,9,55.2,9
		c95.8,0,173.5-77.7,173.5-173.5c0-69.3-40.6-129-99.2-156.9C380,114.5,429.5,179.5,429.5,256L429.5,256z"/>
	<path class="st0" d="M168.8,162.3c-1.9,0-3.1-2.2-1.9-3.8c20.1-27.4,52.6-45.2,89.2-45.2c36.5,0,68.9,17.7,89,45
		c1.1,1.6,0,3.8-1.9,3.8L168.8,162.3z"/>
	<path class="st0" d="M168.8,349.7c-1.9,0-3.1,2.2-1.9,3.8c20.1,27.4,52.6,45.2,89.2,45.2c36.5,0,68.9-17.7,89-45
		c1.1-1.6,0-3.8-1.9-3.8L168.8,349.7z"/>
	<path class="st1" d="M345.1,353.7c-20.1,27.3-52.5,45-89,45c-14.5,0-28.4-2.8-41.1-7.9c5.8,0.9,11.8,1.4,17.9,1.4
		c35.3,0,66.8-16.5,87-42.3h23.3C345.1,349.9,346.2,352.1,345.1,353.7L345.1,353.7z"/>
	<path class="st1" d="M345.1,158.3c-20.1-27.3-52.5-45-89-45c-14.5,0-28.4,2.8-41.1,7.9c5.8-0.9,11.8-1.4,17.9-1.4
		c35.3,0,66.8,16.5,87,42.3h23.3C345.1,162.1,346.2,159.9,345.1,158.3L345.1,158.3z"/>
	<path class="st4" d="M489.6,260.1c-1.2-2.6-1.2-5.6,0-8.2l21.4-47.4c3-6.6-1.8-14.1-9.1-14.1H10c-7.3,0-12.1,7.5-9.1,14.1
		l21.4,47.4c1.2,2.6,1.2,5.6,0,8.2L0.9,307.5c-3,6.6,1.8,14.1,9.1,14.1h492c7.3,0,12.1-7.5,9.1-14.1L489.6,260.1z"/>
	<g>
		<g>
			<path class="st5" d="M96.6,228.9H63.4V249h27.7c2.6,0,4.5,0.5,5.8,1.6s1.9,2.6,1.9,4.4s-0.6,3.3-1.9,4.4
				c-1.3,1.1-3.2,1.6-5.7,1.6H63.4v25.9c0,3.3-0.8,5.7-2.4,7.3c-1.6,1.6-3.6,2.4-6,2.4c-2.5,0-4.5-0.8-6.1-2.4s-2.4-4-2.4-7.3v-60.6
				c0-2.3,0.4-4.2,1.1-5.6c0.7-1.5,1.8-2.5,3.4-3.2c1.5-0.7,3.5-1,5.9-1h39.7c2.7,0,4.7,0.6,6,1.7c1.3,1.1,2,2.6,2,4.4
				c0,1.9-0.7,3.4-2,4.5S99.3,228.9,96.6,228.9z"/>
			<path class="st5" d="M161.5,286.4l-4-9.9h-33.8l-4,10.1c-1.6,3.9-2.9,6.6-4,8s-2.9,2.1-5.4,2.1c-2.1,0-4-0.7-5.6-2.2
				s-2.4-3.1-2.4-5c0-1.1,0.2-2.2,0.6-3.3c0.4-1.1,1-2.7,1.9-4.8l21.3-51.1c0.6-1.5,1.3-3.2,2.2-5.3c0.9-2.1,1.8-3.8,2.7-5.1
				c1-1.4,2.2-2.5,3.8-3.3c1.6-0.8,3.5-1.3,5.8-1.3s4.3,0.4,5.9,1.3c1.6,0.8,2.8,1.9,3.8,3.2c1,1.3,1.8,2.7,2.4,4.3
				c0.7,1.5,1.5,3.6,2.5,6.1l21.7,50.8c1.7,3.9,2.6,6.7,2.6,8.4c0,1.8-0.8,3.5-2.4,5c-1.6,1.5-3.5,2.3-5.8,2.3
				c-1.3,0-2.5-0.2-3.4-0.7c-0.9-0.4-1.7-1.1-2.4-1.8c-0.6-0.8-1.3-2-2.1-3.5C162.7,289,162,287.6,161.5,286.4z M128.2,264.6H153
				l-12.5-32.5L128.2,264.6z"/>
			<path class="st5" d="M192.5,287v-62c0-3.2,0.8-5.6,2.3-7.3c1.5-1.7,3.6-2.4,6-2.4c2.5,0,4.6,0.8,6.2,2.4c1.6,1.6,2.4,4,2.4,7.3
				v62c0,3.3-0.8,5.7-2.4,7.3s-3.6,2.4-6.2,2.4c-2.4,0-4.4-0.8-6-2.4C193.3,292.6,192.5,290.2,192.5,287z"/>
			<path class="st5" d="M244.7,224.9v57.3h34.1c2.7,0,4.8,0.6,6.3,1.9s2.2,2.8,2.2,4.7c0,1.9-0.7,3.5-2.2,4.7
				c-1.4,1.2-3.5,1.8-6.3,1.8h-40.7c-3.7,0-6.3-0.8-7.9-2.3c-1.6-1.5-2.4-4-2.4-7.5v-60.6c0-3.2,0.8-5.6,2.3-7.3
				c1.5-1.6,3.5-2.4,6-2.4s4.6,0.8,6.2,2.4C243.9,219.2,244.7,221.7,244.7,224.9z"/>
			<path class="st5" d="M353.2,228.9h-37.9v19.3h34.9c2.6,0,4.5,0.5,5.8,1.6s1.9,2.5,1.9,4.3c0,1.8-0.6,3.2-1.9,4.4
				c-1.2,1.1-3.2,1.7-5.8,1.7h-34.9v22.4h39.3c2.6,0,4.6,0.6,6,1.7c1.3,1.2,2,2.7,2,4.6s-0.7,3.4-2,4.5c-1.3,1.2-3.3,1.7-6,1.7
				h-45.8c-3.7,0-6.3-0.8-7.9-2.3s-2.4-4-2.4-7.5v-59.2c0-2.3,0.4-4.2,1.1-5.6c0.7-1.5,1.8-2.5,3.4-3.2c1.5-0.7,3.5-1,5.9-1h44.5
				c2.7,0,4.7,0.6,6,1.7c1.3,1.1,2,2.6,2,4.4c0,1.9-0.7,3.4-2,4.5S355.9,228.9,353.2,228.9z"/>
			<path class="st5" d="M386.3,216.6h22c5.7,0,10.6,0.5,14.7,1.5s7.8,2.9,11.1,5.6c8.7,7,13,17.7,13,32c0,4.7-0.4,9-1.3,12.9
				s-2.2,7.4-4,10.6c-1.8,3.1-4.1,5.9-7,8.4c-2.2,1.9-4.7,3.4-7.3,4.6c-2.6,1.1-5.5,2-8.5,2.4c-3,0.5-6.5,0.7-10.3,0.7h-22
				c-3.1,0-5.4-0.4-6.9-1.3c-1.6-0.9-2.6-2.1-3-3.7c-0.5-1.6-0.7-3.7-0.7-6.2v-57.7c0-3.4,0.8-5.9,2.4-7.5
				C380.1,217.4,382.7,216.6,386.3,216.6z M392.8,229.2v53.4h12.8c2.8,0,5-0.1,6.6-0.2s3.2-0.5,4.9-1.1c1.7-0.6,3.2-1.4,4.4-2.4
				c5.6-4.5,8.5-12.3,8.5-23.3c0-7.8-1.2-13.6-3.7-17.5s-5.5-6.3-9.2-7.4c-3.6-1.1-8-1.6-13.2-1.6h-11.1V229.2z"/>
		</g>
	</g>
	<path class="st6" d="M511.1,307.5c3,6.6-1.8,14.1-9.1,14.1h-24.7c7.3,0,12.1-7.5,9.1-14.1L465,260.1c-1.2-2.6-1.2-5.6,0-8.2
		l21.4-47.4c3-6.6-1.8-14.1-9.1-14.1H502c7.3,0,12.1,7.5,9.1,14.1l-21.5,47.4c-1.2,2.6-1.2,5.6,0,8.2L511.1,307.5z"/>
</g>
</svg>
