<svg height="512" viewBox="0 0 55 60" width="512" xmlns="http://www.w3.org/2000/svg">
<g id="Page-1" fill="none" fill-rule="evenodd">
<g id="036---Brain-Wired" transform="translate(0 -1)">
<g fill-rule="nonzero"><path id="Shape" d="m47.23 57.13c.2993503.6196415.2591127 1.3496617-.1065246 1.9326501s-1.0053141.9370537-1.6934754.9373499h-20.17c-.858799-.0035163-1.6194833-.5549118-1.89-1.37-.66-1.9-2.11-5.24-4.51-6.33-2.8476515 1.0311337-5.7484703 1.909057-8.69 2.63-1.43386925.3058116-2.85257563-.5781176-3.21-2-.85-2.46.33-3.13-.05-4.6-.26-1.02-1.22-1.27-1.98-1.81-.61-.43.49-1.84.49-1.84s-1.17-.87-1.59-1.25c-.44-.37.17-.99.73-2.16.22857894-.5041746.29159227-1.0677938.18-1.61-.2-1.08-1.82-1.48-2.62-2.08-1.67-1.24-1.76-1.54 2.6-6.25.91311456-1.0615165 1.49081641-2.3700459 1.66-3.76.08-.47.56-.98.55-1.55-.02-1.43-2.09-2.02-2.28-3.41-.15-1.08 1.24-3.05 1.69-4.98.24613795-1.1813929.56338182-2.3468467.95-3.49.83024267-2.3020922 2.11966974-4.4114452 3.79-6.2 2.45-2.6 5.85-3.72 9.29-4.52 12.58-2.9 18.89-1.31 26.06 4.33 2.7040838 2.01294837 4.6773227 4.8534293 5.62 8.09.7219224 2.6718051 1.0586539 5.4330027 1 8.2-.1 7.34-4.77 9.91-6.85 14.66-1.2724507 2.9274818-1.7485282 6.1392796-1.38 9.31.2766674 3.1445372 1.0883353 6.2187294 2.4 9.09z" fill="#ffe0b2"/>
<path id="Shape" d="m28.71 46.03c.07 2.97-4.31 4.39-5.66 4.81-.56.18-2.2.78-4.19 1.46" fill="#ffe0b2"/>
<path id="Shape" d="m47.22 57.1c-1.3116647-2.8712706-2.1233326-5.9454628-2.4-9.09-.3685282-3.1707204.1075493-6.3825182 1.38-9.31 2.08-4.75 6.75-7.32 6.85-14.66.0586539-2.7669973-.2780776-5.5281949-1-8.2-.9426773-3.2365707-2.9159162-6.07705163-5.62-8.09-5.189-4.082-9.94-6.03-16.93-5.702 5.425.3 9.518 2.23 13.931 5.7 2.7040838 2.01294837 4.6773227 4.8534293 5.62 8.09.7219224 2.6718051 1.0586539 5.4330027 1 8.2-.1 7.34-4.77 9.91-6.85 14.66-1.2724507 2.9274818-1.7485282 6.1392796-1.38 9.31.2766674 3.1445372 1.0883353 6.2187294 2.4 9.09l.01.03c.3003632.6199788.2605065 1.3508999-.1054894 1.9345425-.365996.5836426-1.0066045.9378387-1.6955106.9374575h3c.6881613-.0002962 1.3278381-.3543615 1.6934754-.9373499s.4058749-1.3130086.1065246-1.9326501z" fill="#dfc49c"/>
<circle id="Oval" cx="34" cy="9" fill="#87317E" r="3"/><path id="Shape" d="m34 6c-.5281059.00274535-1.0459153.14635115-1.5.416.9273539.5298262 1.4996803 1.5159639 1.4996803 2.584s-.5723264 2.0541738-1.4996803 2.584c.4540847.2696489.9718941.4132547 1.5.416 1.6568542 0 3-1.3431458 3-3 0-1.65685425-1.3431458-3-3-3z" fill="#401c61"/><circle id="Oval" cx="43" cy="15" fill="#87317E" r="3"/><path id="Shape" d="m43 12c-.5281059.0027453-1.0459153.1463511-1.5.416.9273539.5298262 1.4996803 1.5159639 1.4996803 2.584s-.5723264 2.0541738-1.4996803 2.584c.4540847.2696489.9718941.4132547 1.5.416 1.6568542 0 3-1.3431458 3-3s-1.3431458-3-3-3z" fill="#401c61"/><circle id="Oval" cx="23" cy="10" fill="#87317E" r="3"/><path id="Shape" d="m23 7c-.5281059.00274535-1.0459153.14635115-1.5.416.9273539.5298262 1.4996803 1.5159639 1.4996803 2.584s-.5723264 2.0541738-1.4996803 2.584c.4540847.2696489.9718941.4132547 1.5.416 1.6568542 0 3-1.3431458 3-3 0-1.65685425-1.3431458-3-3-3z" fill="#401c61"/>
<circle id="Oval" cx="14" cy="16" fill="#87317E" r="3"/><path id="Shape" d="m14 13c-.5281059.0027453-1.0459153.1463511-1.5.416.9273539.5298262 1.4996803 1.5159639 1.4996803 2.584s-.5723264 2.0541738-1.4996803 2.584c.4540847.2696489.9718941.4132547 1.5.416 1.6568542 0 2.9999999-1.3431458 2.9999999-3s-1.3431457-3-2.9999999-3z" fill="#401c61"/><circle id="Oval" cx="22" cy="25" fill="#87317E" r="3"/><path id="Shape" d="m22 22c-.5281059.0027453-1.0459153.1463511-1.5.416.9273539.5298262 1.4996803 1.5159639 1.4996803 2.584s-.5723264 2.0541738-1.4996803 2.584c.4540847.2696489.9718941.4132547 1.5.416 1.6568542 0 3-1.3431458 3-3s-1.3431458-3-3-3z" fill="#401c61"/><circle id="Oval" cx="43" cy="30" fill="#87317E" r="3"/>
<path id="Shape" d="m43 27c-.5281059.0027453-1.0459153.1463511-1.5.416.9273539.5298262 1.4996803 1.5159639 1.4996803 2.584s-.5723264 2.0541738-1.4996803 2.584c.4540847.2696489.9718941.4132547 1.5.416 1.6568542 0 3-1.3431458 3-3s-1.3431458-3-3-3z" fill="#401c61"/>
<path id="Shape" d="m41.888 26.934c-1.0544801-1.2445486-2.5619056-2.0169782-4.188-2.146.2934347-1.0517343.2468835-2.1693119-.133-3.193.6840589-1.7641012 1.8410909-3.3055419 3.344-4.455.294003-.207916.453518-.5578451.417624-.9161445-.0358941-.3582995-.2616536-.6696322-.5910578-.8150959-.3294043-.1454638-.7115789-.1025926-1.0005662.1122404-1.5094084 1.1342407-2.7278441 2.6107585-3.555 4.308-.6398014-.4793031-1.3355892-.878911-2.072-1.19-.988-1.881-.613-4.574-.1-6.547.1394519-.5346116-.1808884-1.0810481-.7155-1.2205s-1.0810481.1808884-1.2205.7155c-.5793056 1.9950185-.7100971 4.0934881-.383 6.145-.85-.2666667-1.7833333-.516-2.8-.748-.92-.207-1.795-.383-2.618-.532-1.0902004-.9586226-1.8339244-2.2499468-2.116-3.674-.1165321-.5404106-.6490894-.8840321-1.1895-.7675s-.8840321.6490894-.7675 1.1895c.2069245.9691931.5692715 1.8985303 1.073 2.752-2.371-.348-4.583-.579-6.2-.721-.3590221-.0373346-.7103008.12171-.9191148.4161374s-.2427513.6785369-.0887966 1.0050161c.1539548.3264792.471905.5446524.8319114.5708465 2.175.192 5.453.545 8.725 1.139l.16.03c-1.2158954.9790926-2.2710045 2.1425133-3.127 3.448-.2116952.296385-.2455041.6844301-.0882553 1.0129598s.4806841.545582.8443011.5665972.7099041-.1573306.9039542-.465557c.927115-1.4742551 2.1811624-2.7153002 3.665-3.627.2392515-.1279096.4879847-.2372319.744-.327 1.4135043.3147106 2.8003615.7389926 4.148 1.269.0308537.017259.0625609.0329457.095.047l.017.008.016.008c.8448694.3079405 1.6233939.7739013 2.294 1.373.1233087.1229332.2295878.261836.316.413.46.775.359 1.924-.32 3.621-.371.936-.859 1.911-1.376 2.943-1.764 3.521-3.762 7.512-.539 10.1 3.761 3.009 3.894 13.4 3.628 17.148-.0192563.2647229.0675192.5262415.2412096.726942.1736903.2007005.4200448.3241162.6847904.343058h.071c.5257052.0013266.9626765-.4046197 1-.929.043-.593.977-14.573-4.371-18.851-1.825-1.463-.759-3.975 1.076-7.64.446-.889.89-1.8 1.266-2.69 1.047-.347 2.217.128 3.484 1.436.3853413.391409 1.0142475.3987577 1.4086295.0164598.3943821-.382298.4066021-1.0111283.0273705-1.4084598z" fill="#41295A"/></g>
<circle id="Oval" cx="23" cy="10" r="3" stroke="#000" stroke-linecap="round" stroke-linejoin="round" stroke-width="2"/><circle id="Oval" cx="14" cy="16" r="3" stroke="#000" stroke-linecap="round" stroke-linejoin="round" stroke-width="2"/><circle id="Oval" cx="22" cy="25" r="3" stroke="#000" stroke-linecap="round" stroke-linejoin="round" stroke-width="2"/>
<circle id="Oval" cx="34" cy="9" r="3" stroke="#000" stroke-linecap="round" stroke-linejoin="round" stroke-width="2"/><circle id="Oval" cx="43" cy="15" r="3" stroke="#000" stroke-linecap="round" stroke-linejoin="round" stroke-width="2"/><circle id="Oval" cx="43" cy="30" r="3" stroke="#000" stroke-linecap="round" stroke-linejoin="round" stroke-width="2"/><path id="Shape" d="m47.045 6.962c-7.88-6.2-14.67-7.337-26.9-4.515-3.322.766-7.082 1.935-9.79 4.8-1.76408371 1.88615676-3.12512998 4.1121479-4 6.542-.37139639 1.0699124-.67401353 2.1624739-.906 3.271-.20918813.9331677-.53262784 1.8369852-.963 2.691-1.085 2.428-1.365 3.39.633 5.224 1.5 1.373.515 1.02.28 2.426-.13667315 1.1992847-.62676198 2.3308748-1.408 3.251-3.141 3.388-4.038 4.555-3.928 5.763.189 2.053 3.572 2.752 3.7 3.426.06802965.6567272-.12765811 1.3135762-.544 1.826-1.028 1.82-.564 2.153.867 3.251-.444.876-.531 1.854.266 2.421.721.514 1.464.733 1.591 1.236.259 1.021-.85 2.015.077 4.687.51354408 1.8999411 2.42684791 3.0633178 4.35 2.645 2.8478765-.6883116 5.656333-1.5305481 8.413-2.523 1.38.823 2.692 2.823 3.638 5.574.4143125 1.2179821 1.5564846 2.0383533 2.843 2.042h20.166c1.0382387-.0007248 2.0022976-.5382207 2.5487514-1.4210164.5464538-.8827958.5976113-1.9853811.1352486-2.9149836-1.2483046-2.7781515-2.025588-5.7446704-2.3-8.778-.3542925-2.9908373.0944212-6.0220706 1.3-8.782 1.977-4.52 6.828-7.378 6.936-15.047.13-8.757-2.561-13.613-7.005-17.095zm-1.762 31.344c-1.3493928 3.0857763-1.8519743 6.4754401-1.456 9.82 1.055 8.8 3.191 9.215 2.449 10.406-.1807771.2931868-.5015703.4706469-.846.468h-20.166c-.4325284-.0037611-.8149513-.2817408-.952-.692-.6513546-2.1228866-1.7735868-4.071325-3.283-5.7 1.183-.414 1.967-.694 2.323-.806 4.278-1.346 6.418-3.3 6.359-5.792.0011933-.2676604-.1079281-.5239917-.3016811-.7086625-.193753-.1846707-.4550239-.2813698-.7223189-.2673375-.5519545.013101-.988854.4710397-.976 1.023.024 1.031-.816 2.534-4.962 3.838-1.4.446-8.911 3.249-12.785 4.057-.93504336.181199-1.84495523-.4130111-2.055-1.342-.77-2.223.453-2.631-.026-4.524-.3-1.167-1.108-1.613-2.054-2.17.1064341-.2196804.2347499-.428068.383-.622.16571468-.2123292.23877088-.4825289.20263124-.7494353-.03613964-.2669063-.1784191-.5079491-.39463124-.6685647-.24-.178-.81-.607-1.22-.935.65-1.2 1.208-1.98.928-3.468-.312-1.643-2.3-2.159-3.011-2.688-.234337-.1628795-.45536548-.3441162-.661-.542.017-.578 2.217-2.951 3.4-4.226 1.05083211-1.2040765 1.71741103-2.6949984 1.914-4.281.30523605-.5299527.49632258-1.1178588.561-1.726-.021-1.914-2.174-2.711-2.288-3.532.12134316-.6664309.34676502-1.3096256.668-1.906.48203818-.9739889.8475612-2.001414 1.089-3.061.21395743-1.0264434.49217176-2.0384356.833-3.03.78311822-2.1753042 2.0008397-4.1684342 3.579-5.858 2.337-2.473 5.6-3.493 8.785-4.227 13.039-3.011 18.721-.967 25.214 4.14 2.5390678 1.8790251 4.3917578 4.5389736 5.274 7.572.6985506 2.5803426 1.0241858 5.2473851.967 7.92-.097 6.999-4.6 9.312-6.769 14.278z" fill="#000" fill-rule="nonzero"/></g></g></svg>