<?xml version="1.0" encoding="utf-8"?>
<!-- Generator: Adobe Illustrator 15.1.0, SVG Export Plug-In . SVG Version: 6.00 Build 0)  -->
<!DOCTYPE svg PUBLIC "-//W3C//DTD SVG 1.1//EN" "http://www.w3.org/Graphics/SVG/1.1/DTD/svg11.dtd">
<svg version="1.1" id="Layer_1" xmlns="http://www.w3.org/2000/svg" xmlns:xlink="http://www.w3.org/1999/xlink" x="0px" y="0px"
	 width="368px" height="368px" viewBox="0 0 368 368" enable-background="new 0 0 368 368" xml:space="preserve">
<path fill="#4252FF" d="M104,260v-50.719c-28.238-12.32-48-40.48-48-73.281c0-44.16,35.84-80,80-80s80,35.84,80,80
	c0,32.801-19.762,60.961-48,73.281V232c0-17.68,14.32-32,32-32c14.32,0,26.48,9.441,30.48,22.398
	c2.398-2.637,4.719-5.359,6.961-8.238c0.637-1.039,1.359-1.922,2.16-2.801C254.879,190.16,264,164.238,264,136
	C264,65.281,206.719,8,136,8S8,65.281,8,136C8,195.68,48.801,245.762,104,260z"/>
<path fill="#4252FF" d="M328,192c-13.129,0-24.703,6.449-32,16.246C288.703,198.449,277.129,192,264,192
	c-1.414,0-2.824,0.078-4.215,0.23C267.762,174.641,272,155.609,272,136C272,61.008,210.992,0,136,0S0,61.008,0,136
	c0,59.969,39.199,112.449,96,129.93V360c0,4.426,3.574,8,8,8s8-3.574,8-8V209.391c0-0.016,0-0.023,0-0.039V136
	c0-13.23,10.77-24,24-24s24,10.77,24,24v73.352v0.039V264c0,4.426,3.574,8,8,8s8-3.574,8-8v-32c0-13.23,10.77-24,24-24
	c10.398,0,19.793,6.887,22.91,17.008c0.73,2.121,1.09,4.406,1.09,6.992v64c0,4.426,3.574,8,8,8s8-3.574,8-8v-64
	c0-4.777,1.414-9.406,4.246-13.648c0.371-0.598,0.801-1.094,1.488-1.848C250.258,211.105,256.922,208,264,208
	c13.23,0,24,10.77,24,24v64c0,4.426,3.574,8,8,8s8-3.574,8-8v-64c0-13.23,10.77-24,24-24s24,10.77,24,24v128c0,4.426,3.574,8,8,8
	s8-3.574,8-8V232C368,209.945,350.055,192,328,192z M136,96c-22.055,0-40,17.945-40,40v59.68C76.281,182.48,64,160.273,64,136
	c0-39.703,32.297-72,72-72s72,32.297,72,72c0,24.273-12.281,46.48-32,59.68V136C176,113.945,158.055,96,136,96z M203.559,192.281
	C216.48,176.785,224,157.008,224,136c0-48.52-39.48-88-88-88s-88,39.48-88,88c0,33.191,18.688,63.352,48,78.305v34.887
	C48.414,232.406,16,187.258,16,136C16,69.832,69.832,16,136,16s120,53.832,120,120c0,25.465-7.91,49.902-22.887,70.68
	c-0.016,0.023-0.023,0.055-0.043,0.09c-0.383,0.445-0.688,0.879-1.023,1.328C225.383,199.078,215.105,193.297,203.559,192.281z"/>
</svg>
