<svg id="Capa_1" enable-background="new 0 0 512 512" height="512" viewBox="0 0 512 512" width="512" xmlns="http://www.w3.org/2000/svg">
<g>
<path d="m472.485 248.274h-52.848c-1.837-39.356-17.62-75.128-42.515-102.468l64.329-64.329c3.017-3.017 3.017-7.909 0-10.927-3.018-3.017-7.909-3.017-10.928 0l-64.329 64.329c-27.34-24.895-63.112-40.678-102.468-42.515v-59.313c0-4.267-3.459-7.726-7.726-7.726s-7.726 3.459-7.726 7.726v59.312c-39.356 1.837-75.128 17.619-102.468 42.515l-56.567-56.566c-3.018-3.017-7.909-3.017-10.928 0-3.017 3.017-3.017 7.909 0 10.927l56.567 56.566c-24.896 27.34-40.679 63.112-42.515 102.468h-45.583c-4.268 0-7.726 3.459-7.726 7.726s3.459 7.726 7.726 7.726h45.584c1.837 39.356 17.62 75.128 42.515 102.468l-56.567 56.566c-3.017 3.017-3.017 7.909 0 10.927 1.509 1.509 3.486 2.263 5.464 2.263 1.977 0 3.955-.755 5.464-2.263l56.566-56.566c27.34 24.896 63.112 40.678 102.468 42.515v59.312c0 4.267 3.459 7.726 7.726 7.726s7.726-3.459 7.726-7.726v-59.312c39.356-1.837 75.128-17.619 102.468-42.515l64.329 64.329c1.509 1.509 3.487 2.263 5.464 2.263s3.955-.755 5.464-2.263c3.017-3.017 3.017-7.909 0-10.927l-64.329-64.329c24.896-27.34 40.679-63.112 42.515-102.468h52.848c4.268 0 7.726-3.459 7.726-7.726 0-4.266-3.458-7.725-7.726-7.725zm-216.485 156.097c-81.812 0-148.371-66.559-148.371-148.371s66.559-148.371 148.371-148.371 148.371 66.559 148.371 148.371-66.559 148.371-148.371 148.371z" fill="#000"/>
<g><circle cx="64.52" cy="64.52" fill="#87317E" r="41.626"/><path d="m84.09 27.779c3.114 5.834 4.885 12.494 4.885 19.57 0 22.989-18.637 41.626-41.626 41.626-7.076 0-13.736-1.771-19.57-4.885 7.004 13.122 20.827 22.056 36.741 22.056 22.989 0 41.626-18.637 41.626-41.626 0-15.913-8.933-29.736-22.056-36.741z" fill="#401c61"/></g>
<g><circle cx="256" cy="31.22" fill="#87317E" r="31.22"/><path d="m270.678 3.664c2.336 4.376 3.664 9.371 3.664 14.678 0 17.242-13.978 31.22-31.22 31.22-5.307 0-10.302-1.328-14.678-3.664 5.253 9.842 15.62 16.542 27.556 16.542 17.242 0 31.22-13.977 31.22-31.22 0-11.936-6.701-22.303-16.542-27.556z" fill="#401c61"/></g>
<g><circle cx="256" cy="480.78" fill="#87317E" r="31.22"/>
<path d="m270.678 453.225c2.336 4.376 3.664 9.371 3.664 14.678 0 17.242-13.978 31.22-31.22 31.22-5.307 0-10.302-1.328-14.678-3.664 5.254 9.841 15.621 16.541 27.556 16.541 17.242 0 31.22-13.977 31.22-31.22 0-11.935-6.701-22.302-16.542-27.555z" fill="#401c61"/></g>
<g><circle cx="480.78" cy="256" fill="#87317E" r="31.22"/>
<path d="m495.458 228.444c2.336 4.376 3.664 9.371 3.664 14.678 0 17.242-13.978 31.22-31.22 31.22-5.307 0-10.302-1.328-14.678-3.664 5.253 9.842 15.62 16.542 27.556 16.542 17.242 0 31.22-13.977 31.22-31.22 0-11.935-6.7-22.302-16.542-27.556z" fill="#401c61"/></g>
<g><circle cx="31.22" cy="256" fill="#87317E" r="31.22"/><path d="m45.897 228.444c2.336 4.376 3.664 9.371 3.664 14.678 0 17.242-13.978 31.22-31.22 31.22-5.307 0-10.302-1.328-14.678-3.664 5.253 9.842 15.62 16.542 27.556 16.542 17.242 0 31.22-13.977 31.22-31.22 0-11.935-6.7-22.302-16.542-27.556z" fill="#401c61"/></g>
<g><circle cx="256" cy="203.967" fill="#f1d0a5" r="52.033"/><path d="m281.88 158.835c4.382 7.624 6.9 16.456 6.9 25.88 0 28.737-23.296 52.033-52.033 52.033-9.425 0-18.256-2.519-25.88-6.9 8.979 15.623 25.821 26.152 45.133 26.152 28.737 0 52.033-23.296 52.033-52.033 0-19.312-10.53-36.153-26.153-45.132z" fill="#f1b986"/><path d="m168.585 297.626v35.487c0 5.69 4.612 10.302 10.302 10.302h154.226c5.69 0 10.302-4.612 10.302-10.302v-35.487c0-22.989-18.637-41.626-41.626-41.626h-91.577c-22.99 0-41.627 18.637-41.627 41.626z" fill="#87317E"/>
<path d="m301.789 256h-24.976c22.989 0 41.626 18.637 41.626 41.626v45.789h14.674c5.69 0 10.302-4.612 10.302-10.302v-35.487c0-22.989-18.637-41.626-41.626-41.626z" fill="#401c61"/></g>
<g><circle cx="447.48" cy="64.52" fill="#87317E" r="41.626"/><path d="m467.05 27.779c3.114 5.834 4.885 12.494 4.885 19.57 0 22.989-18.637 41.626-41.626 41.626-7.076 0-13.736-1.771-19.57-4.885 7.004 13.122 20.827 22.056 36.741 22.056 22.989 0 41.626-18.637 41.626-41.626 0-15.913-8.934-29.736-22.056-36.741z" fill="#401c61"/></g>
<g><circle cx="447.48" cy="447.48" fill="#87317E" r="41.626"/><path d="m467.05 410.739c3.114 5.834 4.885 12.494 4.885 19.57 0 22.989-18.637 41.626-41.626 41.626-7.076 0-13.736-1.771-19.57-4.885 7.004 13.122 20.827 22.056 36.741 22.056 22.989 0 41.626-18.637 41.626-41.626 0-15.914-8.934-29.737-22.056-36.741z" fill="#401c61"/></g>
<g><circle cx="64.52" cy="447.48" fill="#87317E" r="41.626"/>
<path d="m84.09 410.739c3.114 5.834 4.885 12.494 4.885 19.57 0 22.989-18.637 41.626-41.626 41.626-7.076 0-13.736-1.771-19.57-4.885 7.004 13.122 20.827 22.056 36.741 22.056 22.989 0 41.626-18.637 41.626-41.626 0-15.914-8.933-29.737-22.056-36.741z" fill="#401c61"/></g>
<g fill="#401c61"><path d="m307.437 322.601v20.81h-15.453v-20.81c0-4.265 3.451-7.726 7.726-7.726 4.266 0 7.727 3.461 7.727 7.726z"/><path d="m220.016 322.601v20.81h-15.453v-20.81c0-4.265 3.461-7.726 7.726-7.726 4.276 0 7.727 3.461 7.727 7.726z"/></g></g></svg>