<svg id="Capa_1" enable-background="new 0 0 512 512" height="512" viewBox="0 0 512 512" width="512" xmlns="http://www.w3.org/2000/svg">
<g>
<circle cx="255.998" cy="256" fill="#87317E" r="209.53"/>
<path d="m465.525 256c0 115.724-93.802 209.527-209.527 209.527-22.231 0-43.658-3.464-63.755-9.878 13.106 2.578 26.645 3.918 40.493 3.918 115.714 0 209.527-93.813 209.527-209.527 0-93.483-61.218-172.663-145.741-199.648 96.329 18.869 169.003 103.742 169.003 205.608z" fill="#401c61"/>
<circle cx="255.998" cy="256" fill="#faf7f7" r="173.539"/><path d="m429.538 256c0 95.844-77.696 173.54-173.54 173.54-26.603 0-51.804-5.981-74.335-16.684 17.354 5.816 35.925 8.971 55.228 8.971 95.844 0 173.54-77.696 173.54-173.54 0-69.251-40.565-129.026-99.226-156.867 68.777 23.067 118.333 88.039 118.333 164.58z" fill="#ede1dd"/>
<path d="m168.805 162.31c-1.933.002-3.066-2.199-1.922-3.758 20.121-27.419 52.579-45.219 89.196-45.219 36.514 0 68.894 17.7 89.027 44.989 1.148 1.556.02 3.76-1.913 3.763z" fill="#87317E"/>
<path d="m168.805 349.69c-1.933-.003-3.066 2.199-1.922 3.758 20.121 27.419 52.579 45.219 89.196 45.219 36.514 0 68.894-17.7 89.027-44.989 1.148-1.556.02-3.76-1.913-3.763z" fill="#87317E"/>
<path d="m345.109 353.679c-20.138 27.284-52.516 44.988-89.028 44.988-14.529 0-28.398-2.805-41.101-7.899 5.816.949 11.786 1.444 17.88 1.444 35.306 0 66.756-16.55 86.997-42.328l23.335.031c1.938.001 3.062 2.207 1.917 3.764z" fill="#401c61"/>
<path d="m345.109 158.321c-20.138-27.284-52.516-44.988-89.028-44.988-14.529 0-28.398 2.805-41.101 7.899 5.816-.949 11.786-1.444 17.88-1.444 35.306 0 66.756 16.55 86.997 42.328l23.335-.031c1.938 0 3.062-2.207 1.917-3.764z" fill="#401c61"/>
<path d="m489.653 260.115c-1.183-2.616-1.183-5.614 0-8.23l21.445-47.426c2.989-6.611-1.845-14.103-9.101-14.103h-491.998c-7.256 0-12.09 7.492-9.101 14.103l21.445 47.426c1.183 2.616 1.183 5.614 0 8.23l-21.444 47.426c-2.989 6.611 1.845 14.103 9.101 14.103h491.998c7.256 0 12.09-7.492 9.101-14.103z" fill="#CE9FFC"/>
<g fill="#401c61"><path d="m152.347 222.952c-.026-.071-.054-.141-.083-.211-1.417-3.446-4.74-5.672-8.475-5.672-3.729.003-7.052 2.236-8.464 5.688-.024.058-.047.117-.07.176l-23.424 61.503c-1.522 3.995.484 8.467 4.478 9.989 3.994 1.52 8.467-.483 9.989-4.479l3.935-10.332h26.95l3.891 10.31c1.169 3.099 4.115 5.009 7.242 5.01 5.323.001 9.119-5.501 7.241-10.475zm-16.217 41.181 7.641-20.062 7.571 20.062z"/>
<path d="m375.826 233.119c4.276 0 7.741-3.466 7.741-7.741s-3.465-7.741-7.741-7.741h-26.045c-4.276 0-7.741 3.466-7.741 7.741v61.812c0 4.275 3.465 7.741 7.741 7.741h26.045c4.276 0 7.741-3.466 7.741-7.741s-3.465-7.741-7.741-7.741h-18.304v-15.425h16.383c4.275 0 7.741-3.466 7.741-7.741s-3.465-7.741-7.741-7.741h-16.383v-15.425h18.304z"/>
<path d="m426.173 218.914h-17.145c-2.055 0-4.026.817-5.479 2.272-1.451 1.455-2.266 3.427-2.262 5.483l.122 60.549c.007 2.053.83 4.02 2.287 5.466 1.45 1.44 3.411 2.247 5.454 2.247h.029c.518-.002 12.745-.049 17.63-.134 18.282-.319 31.551-16.248 31.551-37.874 0-22.735-12.935-38.009-32.187-38.009zm.366 60.404c-2.225.039-6.127.07-9.675.092-.023-7.144-.07-37.581-.082-45.015h9.39c2.79 0 16.706 1.086 16.706 22.528.001 11.005-5.052 22.198-16.339 22.395z"/>
<path d="m234.337 249.23c-7.672-2.83-14.814-5.912-16.996-6.867-1.726-1.383-1.669-3.313-1.553-4.117.159-1.112.967-3.829 5.002-5.045 8.813-2.653 16.968 3.778 17.219 3.979 3.271 2.714 8.127 2.283 10.867-.977 2.751-3.272 2.328-8.155-.944-10.906-.589-.494-14.596-12.043-31.606-6.919-8.59 2.588-14.668 9.358-15.861 17.668-1.12 7.796 2.26 15.296 8.819 19.572.342.223.7.418 1.073.585.361.161 8.95 3.984 18.623 7.553 2.749 1.014 9.051 3.877 8.215 8.556-.626 3.509-4.894 7.139-10.953 7.139-6.217 0-12.198-2.506-16.003-6.704-2.871-3.168-7.768-3.407-10.934-.537-3.168 2.871-3.409 7.766-.538 10.934 6.691 7.382 16.962 11.789 27.475 11.789 13.119 0 24.134-8.369 26.193-19.9 1.549-8.676-2.392-20.01-18.098-25.803z"/>
<path d="m306.976 249.23c-7.672-2.83-14.814-5.912-16.996-6.867-1.726-1.383-1.669-3.313-1.553-4.117.159-1.112.966-3.829 5.001-5.044 8.806-2.655 16.968 3.778 17.22 3.979 3.271 2.714 8.127 2.283 10.867-.977 2.751-3.272 2.328-8.155-.944-10.906-.588-.493-14.589-12.044-31.607-6.919-8.59 2.588-14.668 9.358-15.86 17.668-1.12 7.796 2.26 15.296 8.819 19.572.342.223.7.418 1.073.585.361.161 8.95 3.984 18.623 7.553 2.749 1.014 9.051 3.877 8.215 8.556-.627 3.51-4.895 7.14-10.954 7.14-6.215 0-12.197-2.506-16.002-6.704-2.871-3.168-7.768-3.407-10.933-.537-3.168 2.871-3.409 7.766-.538 10.934 6.691 7.382 16.962 11.789 27.474 11.789 13.119 0 24.135-8.369 26.194-19.9 1.548-8.678-2.393-20.012-18.099-25.805z"/>
<path d="m78.751 217.069h-17.37c-2.427 0-4.636 1.107-6.104 2.992-1.036 1.33-1.636 3.058-1.636 4.748v62.381c0 4.275 3.465 7.741 7.741 7.741s7.741-3.466 7.741-7.741v-19.398c3.51-.018 7.391-.035 9.629-.035 14.165 0 25.689-11.369 25.689-25.345-.001-13.974-11.526-25.343-25.69-25.343zm0 35.208c-2.222 0-6.056.017-9.551.034-.018-3.614-.035-7.614-.035-9.898 0-1.936-.01-6.08-.02-9.863h9.606c5.533 0 10.208 4.517 10.208 9.863-.001 5.347-4.675 9.864-10.208 9.864z"/>
</g>
<path d="m511.101 307.536c2.99 6.62-1.846 14.106-9.105 14.106h-24.706c7.259 0 12.095-7.486 9.105-14.106l-21.448-47.422c-1.186-2.619-1.186-5.609 0-8.228l21.448-47.422c2.99-6.62-1.846-14.106-9.105-14.106h24.706c7.259 0 12.095 7.486 9.105 14.106l-21.448 47.422c-1.186 2.619-1.186 5.609 0 8.228z" fill="#41295A"/></g></svg>